  0
SECTION
  2
HEADER
  9
$ACADVER
  1
AC1009
  9
$EXTMIN
 10
0.0
 20
0.0
 30
0.0
  9
$EXTMAX
 10
1000.0
 20
1000.0
 30
0.0
  9
$FILLMODE
 70
 0
  9
$SPLFRAME
 70
 1
  0
ENDSEC
  0
SECTION
  2
TABLES
  0
TABLE
  2
LAYER
 70
1
  0
LAYER
  2
0
 70
     0
 62
     7
  6
CONTINUOUS
  0
ENDTAB
  0
ENDSEC
  0
SECTION
  2
ENTITIES
  0
LINE
  8
0
 62
     9
 10
0.373447
 20
0.327973
 30
0.0
 11
0.373447
 21
180.327
 31
0.0
  0
LINE
  8
0
 62
     9
 10
0.373447
 20
180.327
 30
0.0
 11
270.374
 21
180.327
 31
0.0
  0
LINE
  8
0
 62
     9
 10
270.374
 20
180.327
 30
0.0
 11
270.374
 21
0.327973
 31
0.0
  0
LINE
  8
0
 62
     9
 10
270.374
 20
0.327973
 30
0.0
 11
0.373447
 21
0.327973
 31
0.0
  0
LINE
  8
0
 62
     9
 10
251
 20
154.336
 30
0.0
 11
251
 21
153.373
 31
0.0
  0
LINE
  8
0
 62
     9
 10
251
 20
153.373
 30
0.0
 11
250.6
 21
150.482
 31
0.0
  0
LINE
  8
0
 62
     9
 10
250.6
 20
150.482
 30
0.0
 11
249.457
 21
146.891
 31
0.0
  0
LINE
  8
0
 62
     9
 10
249.457
 20
146.891
 30
0.0
 11
247.647
 21
143.641
 31
0.0
  0
LINE
  8
0
 62
     9
 10
247.647
 20
143.641
 30
0.0
 11
245.251
 21
140.809
 31
0.0
  0
LINE
  8
0
 62
     9
 10
245.251
 20
140.809
 30
0.0
 11
242.347
 21
138.473
 31
0.0
  0
LINE
  8
0
 62
     9
 10
242.347
 20
138.473
 30
0.0
 11
239.014
 21
136.71
 31
0.0
  0
LINE
  8
0
 62
     9
 10
239.014
 20
136.71
 30
0.0
 11
235.33
 21
135.595
 31
0.0
  0
LINE
  8
0
 62
     9
 10
235.33
 20
135.595
 30
0.0
 11
232.363
 21
135.205
 31
0.0
  0
LINE
  8
0
 62
     9
 10
232.363
 20
135.205
 30
0.0
 11
231.375
 21
135.205
 31
0.0
  0
LINE
  8
0
 62
     9
 10
231.375
 20
135.205
 30
0.0
 11
230.386
 21
135.205
 31
0.0
  0
LINE
  8
0
 62
     9
 10
230.386
 20
135.205
 30
0.0
 11
227.419
 21
135.595
 31
0.0
  0
LINE
  8
0
 62
     9
 10
227.419
 20
135.595
 30
0.0
 11
223.736
 21
136.71
 31
0.0
  0
LINE
  8
0
 62
     9
 10
223.736
 20
136.71
 30
0.0
 11
220.402
 21
138.473
 31
0.0
  0
LINE
  8
0
 62
     9
 10
220.402
 20
138.473
 30
0.0
 11
217.497
 21
140.809
 31
0.0
  0
LINE
  8
0
 62
     9
 10
217.497
 20
140.809
 30
0.0
 11
215.101
 21
143.641
 31
0.0
  0
LINE
  8
0
 62
     9
 10
215.101
 20
143.641
 30
0.0
 11
213.291
 21
146.891
 31
0.0
  0
LINE
  8
0
 62
     9
 10
213.291
 20
146.891
 30
0.0
 11
212.147
 21
150.482
 31
0.0
  0
LINE
  8
0
 62
     9
 10
212.147
 20
150.482
 30
0.0
 11
211.749
 21
153.373
 31
0.0
  0
LINE
  8
0
 62
     9
 10
211.749
 20
153.373
 30
0.0
 11
211.749
 21
154.336
 31
0.0
  0
LINE
  8
0
 62
     9
 10
211.749
 20
154.336
 30
0.0
 11
211.749
 21
155.301
 31
0.0
  0
LINE
  8
0
 62
     9
 10
211.749
 20
155.301
 30
0.0
 11
212.147
 21
158.193
 31
0.0
  0
LINE
  8
0
 62
     9
 10
212.147
 20
158.193
 30
0.0
 11
213.291
 21
161.785
 31
0.0
  0
LINE
  8
0
 62
     9
 10
213.291
 20
161.785
 30
0.0
 11
215.101
 21
165.034
 31
0.0
  0
LINE
  8
0
 62
     9
 10
215.101
 20
165.034
 30
0.0
 11
217.497
 21
167.866
 31
0.0
  0
LINE
  8
0
 62
     9
 10
217.497
 20
167.866
 30
0.0
 11
220.402
 21
170.202
 31
0.0
  0
LINE
  8
0
 62
     9
 10
220.402
 20
170.202
 30
0.0
 11
223.736
 21
171.965
 31
0.0
  0
LINE
  8
0
 62
     9
 10
223.736
 20
171.965
 30
0.0
 11
227.419
 21
173.08
 31
0.0
  0
LINE
  8
0
 62
     9
 10
227.419
 20
173.08
 30
0.0
 11
230.386
 21
173.469
 31
0.0
  0
LINE
  8
0
 62
     9
 10
230.386
 20
173.469
 30
0.0
 11
231.375
 21
173.469
 31
0.0
  0
LINE
  8
0
 62
     9
 10
231.375
 20
173.469
 30
0.0
 11
232.363
 21
173.469
 31
0.0
  0
LINE
  8
0
 62
     9
 10
232.363
 20
173.469
 30
0.0
 11
235.33
 21
173.08
 31
0.0
  0
LINE
  8
0
 62
     9
 10
235.33
 20
173.08
 30
0.0
 11
239.014
 21
171.965
 31
0.0
  0
LINE
  8
0
 62
     9
 10
239.014
 20
171.965
 30
0.0
 11
242.347
 21
170.202
 31
0.0
  0
LINE
  8
0
 62
     9
 10
242.347
 20
170.202
 30
0.0
 11
245.251
 21
167.866
 31
0.0
  0
LINE
  8
0
 62
     9
 10
245.251
 20
167.866
 30
0.0
 11
247.647
 21
165.034
 31
0.0
  0
LINE
  8
0
 62
     9
 10
247.647
 20
165.034
 30
0.0
 11
249.457
 21
161.785
 31
0.0
  0
LINE
  8
0
 62
     9
 10
249.457
 20
161.785
 30
0.0
 11
250.6
 21
158.193
 31
0.0
  0
LINE
  8
0
 62
     9
 10
250.6
 20
158.193
 30
0.0
 11
251
 21
155.301
 31
0.0
  0
LINE
  8
0
 62
     9
 10
251
 20
155.301
 30
0.0
 11
251
 21
154.336
 31
0.0
  0
ENDSEC
  0
EOF
