  0
SECTION
  2
HEADER
  9
$ACADVER
  1
AC1009
  9
$EXTMIN
 10
0.0
 20
0.0
 30
0.0
  9
$EXTMAX
 10
1000.0
 20
1000.0
 30
0.0
  9
$FILLMODE
 70
 0
  9
$SPLFRAME
 70
 1
  0
ENDSEC
  0
SECTION
  2
TABLES
  0
TABLE
  2
LAYER
 70
1
  0
LAYER
  2
0
 70
     0
 62
     7
  6
CONTINUOUS
  0
ENDTAB
  0
ENDSEC
  0
SECTION
  2
ENTITIES
  0
LINE
  8
0
 62
     9
 10
0.350022
 20
164.386
 30
0.0
 11
250.349
 21
164.386
 31
0.0
  0
LINE
  8
0
 62
     9
 10
250.349
 20
164.386
 30
0.0
 11
250.349
 21
84.3869
 31
0.0
  0
LINE
  8
0
 62
     9
 10
250.349
 20
84.3869
 30
0.0
 11
0.350022
 21
84.3869
 31
0.0
  0
LINE
  8
0
 62
     9
 10
0.350022
 20
84.3869
 30
0.0
 11
0.350022
 21
164.386
 31
0.0
  0
LINE
  8
0
 62
     9
 10
145.342
 20
124.416
 30
0.0
 11
145.342
 21
123.409
 31
0.0
  0
LINE
  8
0
 62
     9
 10
145.342
 20
123.409
 30
0.0
 11
144.935
 21
120.385
 31
0.0
  0
LINE
  8
0
 62
     9
 10
144.935
 20
120.385
 30
0.0
 11
143.769
 21
116.632
 31
0.0
  0
LINE
  8
0
 62
     9
 10
143.769
 20
116.632
 30
0.0
 11
141.926
 21
113.235
 31
0.0
  0
LINE
  8
0
 62
     9
 10
141.926
 20
113.235
 30
0.0
 11
139.484
 21
110.273
 31
0.0
  0
LINE
  8
0
 62
     9
 10
139.484
 20
110.273
 30
0.0
 11
136.524
 21
107.831
 31
0.0
  0
LINE
  8
0
 62
     9
 10
136.524
 20
107.831
 30
0.0
 11
133.125
 21
105.988
 31
0.0
  0
LINE
  8
0
 62
     9
 10
133.125
 20
105.988
 30
0.0
 11
129.372
 21
104.822
 31
0.0
  0
LINE
  8
0
 62
     9
 10
129.372
 20
104.822
 30
0.0
 11
126.349
 21
104.415
 31
0.0
  0
LINE
  8
0
 62
     9
 10
126.349
 20
104.415
 30
0.0
 11
125.342
 21
104.415
 31
0.0
  0
LINE
  8
0
 62
     9
 10
125.342
 20
104.415
 30
0.0
 11
124.333
 21
104.415
 31
0.0
  0
LINE
  8
0
 62
     9
 10
124.333
 20
104.415
 30
0.0
 11
121.31
 21
104.822
 31
0.0
  0
LINE
  8
0
 62
     9
 10
121.31
 20
104.822
 30
0.0
 11
117.556
 21
105.988
 31
0.0
  0
LINE
  8
0
 62
     9
 10
117.556
 20
105.988
 30
0.0
 11
114.16
 21
107.831
 31
0.0
  0
LINE
  8
0
 62
     9
 10
114.16
 20
107.831
 30
0.0
 11
111.199
 21
110.273
 31
0.0
  0
LINE
  8
0
 62
     9
 10
111.199
 20
110.273
 30
0.0
 11
108.756
 21
113.235
 31
0.0
  0
LINE
  8
0
 62
     9
 10
108.756
 20
113.235
 30
0.0
 11
106.912
 21
116.632
 31
0.0
  0
LINE
  8
0
 62
     9
 10
106.912
 20
116.632
 30
0.0
 11
105.747
 21
120.385
 31
0.0
  0
LINE
  8
0
 62
     9
 10
105.747
 20
120.385
 30
0.0
 11
105.341
 21
123.409
 31
0.0
  0
LINE
  8
0
 62
     9
 10
105.341
 20
123.409
 30
0.0
 11
105.341
 21
124.416
 31
0.0
  0
LINE
  8
0
 62
     9
 10
105.341
 20
124.416
 30
0.0
 11
105.341
 21
125.425
 31
0.0
  0
LINE
  8
0
 62
     9
 10
105.341
 20
125.425
 30
0.0
 11
105.747
 21
128.447
 31
0.0
  0
LINE
  8
0
 62
     9
 10
105.747
 20
128.447
 30
0.0
 11
106.912
 21
132.201
 31
0.0
  0
LINE
  8
0
 62
     9
 10
106.912
 20
132.201
 30
0.0
 11
108.756
 21
135.599
 31
0.0
  0
LINE
  8
0
 62
     9
 10
108.756
 20
135.599
 30
0.0
 11
111.199
 21
138.559
 31
0.0
  0
LINE
  8
0
 62
     9
 10
111.199
 20
138.559
 30
0.0
 11
114.16
 21
141.001
 31
0.0
  0
LINE
  8
0
 62
     9
 10
114.16
 20
141.001
 30
0.0
 11
117.556
 21
142.845
 31
0.0
  0
LINE
  8
0
 62
     9
 10
117.556
 20
142.845
 30
0.0
 11
121.31
 21
144.011
 31
0.0
  0
LINE
  8
0
 62
     9
 10
121.31
 20
144.011
 30
0.0
 11
124.333
 21
144.416
 31
0.0
  0
LINE
  8
0
 62
     9
 10
124.333
 20
144.416
 30
0.0
 11
125.342
 21
144.416
 31
0.0
  0
LINE
  8
0
 62
     9
 10
125.342
 20
144.416
 30
0.0
 11
126.349
 21
144.416
 31
0.0
  0
LINE
  8
0
 62
     9
 10
126.349
 20
144.416
 30
0.0
 11
129.372
 21
144.011
 31
0.0
  0
LINE
  8
0
 62
     9
 10
129.372
 20
144.011
 30
0.0
 11
133.125
 21
142.845
 31
0.0
  0
LINE
  8
0
 62
     9
 10
133.125
 20
142.845
 30
0.0
 11
136.524
 21
141.001
 31
0.0
  0
LINE
  8
0
 62
     9
 10
136.524
 20
141.001
 30
0.0
 11
139.484
 21
138.559
 31
0.0
  0
LINE
  8
0
 62
     9
 10
139.484
 20
138.559
 30
0.0
 11
141.926
 21
135.599
 31
0.0
  0
LINE
  8
0
 62
     9
 10
141.926
 20
135.599
 30
0.0
 11
143.769
 21
132.201
 31
0.0
  0
LINE
  8
0
 62
     9
 10
143.769
 20
132.201
 30
0.0
 11
144.935
 21
128.447
 31
0.0
  0
LINE
  8
0
 62
     9
 10
144.935
 20
128.447
 30
0.0
 11
145.342
 21
125.425
 31
0.0
  0
LINE
  8
0
 62
     9
 10
145.342
 20
125.425
 30
0.0
 11
145.342
 21
124.416
 31
0.0
  0
LINE
  8
0
 62
     9
 10
2.37298
 20
80.3494
 30
0.0
 11
252.374
 21
80.3494
 31
0.0
  0
LINE
  8
0
 62
     9
 10
252.374
 20
80.3494
 30
0.0
 11
252.374
 21
0.350022
 31
0.0
  0
LINE
  8
0
 62
     9
 10
252.374
 20
0.350022
 30
0.0
 11
2.37298
 21
0.350022
 31
0.0
  0
LINE
  8
0
 62
     9
 10
2.37298
 20
0.350022
 30
0.0
 11
2.37298
 21
80.3494
 31
0.0
  0
ENDSEC
  0
EOF
