  0
SECTION
  2
HEADER
  9
$ACADVER
  1
AC1009
  9
$EXTMIN
 10
0.0
 20
0.0
 30
0.0
  9
$EXTMAX
 10
1000.0
 20
1000.0
 30
0.0
  9
$FILLMODE
 70
 0
  9
$SPLFRAME
 70
 1
  0
ENDSEC
  0
SECTION
  2
TABLES
  0
TABLE
  2
LAYER
 70
1
  0
LAYER
  2
0
 70
     0
 62
     7
  6
CONTINUOUS
  0
ENDTAB
  0
ENDSEC
  0
SECTION
  2
ENTITIES
  0
LINE
  8
0
 62
     250
 10
0.100597
 20
190.099
 30
0.0
 11
190.1
 21
190.099
 31
0.0
  0
LINE
  8
0
 62
     250
 10
190.1
 20
190.099
 30
0.0
 11
190.1
 21
0.0992188
 31
0.0
  0
LINE
  8
0
 62
     250
 10
190.1
 20
0.0992188
 30
0.0
 11
0.100597
 21
0.0992188
 31
0.0
  0
LINE
  8
0
 62
     250
 10
0.100597
 20
0.0992188
 30
0.0
 11
0.100597
 21
190.099
 31
0.0
  0
LINE
  8
0
 62
     250
 10
49.9512
 20
155.06
 30
0.0
 11
49.9512
 21
154.304
 31
0.0
  0
LINE
  8
0
 62
     250
 10
49.9512
 20
154.304
 30
0.0
 11
49.6454
 21
152.038
 31
0.0
  0
LINE
  8
0
 62
     250
 10
49.6454
 20
152.038
 30
0.0
 11
48.7715
 21
149.221
 31
0.0
  0
LINE
  8
0
 62
     250
 10
48.7715
 20
149.221
 30
0.0
 11
47.3893
 21
146.673
 31
0.0
  0
LINE
  8
0
 62
     250
 10
47.3893
 20
146.673
 30
0.0
 11
45.5581
 21
144.453
 31
0.0
  0
LINE
  8
0
 62
     250
 10
45.5581
 20
144.453
 30
0.0
 11
43.338
 21
142.621
 31
0.0
  0
LINE
  8
0
 62
     250
 10
43.338
 20
142.621
 30
0.0
 11
40.7899
 21
141.239
 31
0.0
  0
LINE
  8
0
 62
     250
 10
40.7899
 20
141.239
 30
0.0
 11
37.9734
 21
140.366
 31
0.0
  0
LINE
  8
0
 62
     250
 10
37.9734
 20
140.366
 30
0.0
 11
35.7064
 21
140.06
 31
0.0
  0
LINE
  8
0
 62
     250
 10
35.7064
 20
140.06
 30
0.0
 11
34.9512
 21
140.06
 31
0.0
  0
LINE
  8
0
 62
     250
 10
34.9512
 20
140.06
 30
0.0
 11
34.1946
 21
140.06
 31
0.0
  0
LINE
  8
0
 62
     250
 10
34.1946
 20
140.06
 30
0.0
 11
31.9278
 21
140.366
 31
0.0
  0
LINE
  8
0
 62
     250
 10
31.9278
 20
140.366
 30
0.0
 11
29.111
 21
141.239
 31
0.0
  0
LINE
  8
0
 62
     250
 10
29.111
 20
141.239
 30
0.0
 11
26.5631
 21
142.621
 31
0.0
  0
LINE
  8
0
 62
     250
 10
26.5631
 20
142.621
 30
0.0
 11
24.3444
 21
144.453
 31
0.0
  0
LINE
  8
0
 62
     250
 10
24.3444
 20
144.453
 30
0.0
 11
22.5116
 21
146.673
 31
0.0
  0
LINE
  8
0
 62
     250
 10
22.5116
 20
146.673
 30
0.0
 11
21.1294
 21
149.221
 31
0.0
  0
LINE
  8
0
 62
     250
 10
21.1294
 20
149.221
 30
0.0
 11
20.2558
 21
152.038
 31
0.0
  0
LINE
  8
0
 62
     250
 10
20.2558
 20
152.038
 30
0.0
 11
19.9512
 21
154.304
 31
0.0
  0
LINE
  8
0
 62
     250
 10
19.9512
 20
154.304
 30
0.0
 11
19.9512
 21
155.06
 31
0.0
  0
LINE
  8
0
 62
     250
 10
19.9512
 20
155.06
 30
0.0
 11
19.9512
 21
155.816
 31
0.0
  0
LINE
  8
0
 62
     250
 10
19.9512
 20
155.816
 30
0.0
 11
20.2558
 21
158.083
 31
0.0
  0
LINE
  8
0
 62
     250
 10
20.2558
 20
158.083
 30
0.0
 11
21.1294
 21
160.9
 31
0.0
  0
LINE
  8
0
 62
     250
 10
21.1294
 20
160.9
 30
0.0
 11
22.5116
 21
163.448
 31
0.0
  0
LINE
  8
0
 62
     250
 10
22.5116
 20
163.448
 30
0.0
 11
24.3444
 21
165.666
 31
0.0
  0
LINE
  8
0
 62
     250
 10
24.3444
 20
165.666
 30
0.0
 11
26.5631
 21
167.499
 31
0.0
  0
LINE
  8
0
 62
     250
 10
26.5631
 20
167.499
 30
0.0
 11
29.111
 21
168.881
 31
0.0
  0
LINE
  8
0
 62
     250
 10
29.111
 20
168.881
 30
0.0
 11
31.9278
 21
169.755
 31
0.0
  0
LINE
  8
0
 62
     250
 10
31.9278
 20
169.755
 30
0.0
 11
34.1946
 21
170.06
 31
0.0
  0
LINE
  8
0
 62
     250
 10
34.1946
 20
170.06
 30
0.0
 11
34.9512
 21
170.06
 31
0.0
  0
LINE
  8
0
 62
     250
 10
34.9512
 20
170.06
 30
0.0
 11
35.7064
 21
170.06
 31
0.0
  0
LINE
  8
0
 62
     250
 10
35.7064
 20
170.06
 30
0.0
 11
37.9734
 21
169.755
 31
0.0
  0
LINE
  8
0
 62
     250
 10
37.9734
 20
169.755
 30
0.0
 11
40.7899
 21
168.881
 31
0.0
  0
LINE
  8
0
 62
     250
 10
40.7899
 20
168.881
 30
0.0
 11
43.338
 21
167.499
 31
0.0
  0
LINE
  8
0
 62
     250
 10
43.338
 20
167.499
 30
0.0
 11
45.5581
 21
165.666
 31
0.0
  0
LINE
  8
0
 62
     250
 10
45.5581
 20
165.666
 30
0.0
 11
47.3893
 21
163.448
 31
0.0
  0
LINE
  8
0
 62
     250
 10
47.3893
 20
163.448
 30
0.0
 11
48.7715
 21
160.9
 31
0.0
  0
LINE
  8
0
 62
     250
 10
48.7715
 20
160.9
 30
0.0
 11
49.6454
 21
158.083
 31
0.0
  0
LINE
  8
0
 62
     250
 10
49.6454
 20
158.083
 30
0.0
 11
49.9512
 21
155.816
 31
0.0
  0
LINE
  8
0
 62
     250
 10
49.9512
 20
155.816
 30
0.0
 11
49.9512
 21
155.06
 31
0.0
  0
LINE
  8
0
 62
     250
 10
49.9512
 20
155.06
 30
0.0
 11
49.9512
 21
154.304
 31
0.0
  0
LINE
  8
0
 62
     250
 10
49.9512
 20
154.304
 30
0.0
 11
49.6454
 21
152.038
 31
0.0
  0
LINE
  8
0
 62
     250
 10
49.6454
 20
152.038
 30
0.0
 11
48.7715
 21
149.221
 31
0.0
  0
LINE
  8
0
 62
     250
 10
48.7715
 20
149.221
 30
0.0
 11
47.3893
 21
146.673
 31
0.0
  0
LINE
  8
0
 62
     250
 10
47.3893
 20
146.673
 30
0.0
 11
45.5581
 21
144.453
 31
0.0
  0
LINE
  8
0
 62
     250
 10
45.5581
 20
144.453
 30
0.0
 11
43.338
 21
142.621
 31
0.0
  0
LINE
  8
0
 62
     250
 10
43.338
 20
142.621
 30
0.0
 11
40.7899
 21
141.239
 31
0.0
  0
LINE
  8
0
 62
     250
 10
40.7899
 20
141.239
 30
0.0
 11
37.9734
 21
140.366
 31
0.0
  0
LINE
  8
0
 62
     250
 10
37.9734
 20
140.366
 30
0.0
 11
35.7064
 21
140.06
 31
0.0
  0
LINE
  8
0
 62
     250
 10
35.7064
 20
140.06
 30
0.0
 11
34.9512
 21
140.06
 31
0.0
  0
LINE
  8
0
 62
     250
 10
34.9512
 20
140.06
 30
0.0
 11
34.1946
 21
140.06
 31
0.0
  0
LINE
  8
0
 62
     250
 10
34.1946
 20
140.06
 30
0.0
 11
31.9278
 21
140.366
 31
0.0
  0
LINE
  8
0
 62
     250
 10
31.9278
 20
140.366
 30
0.0
 11
29.111
 21
141.239
 31
0.0
  0
LINE
  8
0
 62
     250
 10
29.111
 20
141.239
 30
0.0
 11
26.5631
 21
142.621
 31
0.0
  0
LINE
  8
0
 62
     250
 10
26.5631
 20
142.621
 30
0.0
 11
24.3444
 21
144.453
 31
0.0
  0
LINE
  8
0
 62
     250
 10
24.3444
 20
144.453
 30
0.0
 11
22.5116
 21
146.673
 31
0.0
  0
LINE
  8
0
 62
     250
 10
22.5116
 20
146.673
 30
0.0
 11
21.1294
 21
149.221
 31
0.0
  0
LINE
  8
0
 62
     250
 10
21.1294
 20
149.221
 30
0.0
 11
20.2558
 21
152.038
 31
0.0
  0
LINE
  8
0
 62
     250
 10
20.2558
 20
152.038
 30
0.0
 11
19.9512
 21
154.304
 31
0.0
  0
LINE
  8
0
 62
     250
 10
19.9512
 20
154.304
 30
0.0
 11
19.9512
 21
155.06
 31
0.0
  0
LINE
  8
0
 62
     250
 10
19.9512
 20
155.06
 30
0.0
 11
19.9512
 21
155.816
 31
0.0
  0
LINE
  8
0
 62
     250
 10
19.9512
 20
155.816
 30
0.0
 11
20.2558
 21
158.083
 31
0.0
  0
LINE
  8
0
 62
     250
 10
20.2558
 20
158.083
 30
0.0
 11
21.1294
 21
160.9
 31
0.0
  0
LINE
  8
0
 62
     250
 10
21.1294
 20
160.9
 30
0.0
 11
22.5116
 21
163.448
 31
0.0
  0
LINE
  8
0
 62
     250
 10
22.5116
 20
163.448
 30
0.0
 11
24.3444
 21
165.666
 31
0.0
  0
LINE
  8
0
 62
     250
 10
24.3444
 20
165.666
 30
0.0
 11
26.5631
 21
167.499
 31
0.0
  0
LINE
  8
0
 62
     250
 10
26.5631
 20
167.499
 30
0.0
 11
29.111
 21
168.881
 31
0.0
  0
LINE
  8
0
 62
     250
 10
29.111
 20
168.881
 30
0.0
 11
31.9278
 21
169.755
 31
0.0
  0
LINE
  8
0
 62
     250
 10
31.9278
 20
169.755
 30
0.0
 11
34.1946
 21
170.06
 31
0.0
  0
LINE
  8
0
 62
     250
 10
34.1946
 20
170.06
 30
0.0
 11
34.9512
 21
170.06
 31
0.0
  0
LINE
  8
0
 62
     250
 10
34.9512
 20
170.06
 30
0.0
 11
35.7064
 21
170.06
 31
0.0
  0
LINE
  8
0
 62
     250
 10
35.7064
 20
170.06
 30
0.0
 11
37.9734
 21
169.755
 31
0.0
  0
LINE
  8
0
 62
     250
 10
37.9734
 20
169.755
 30
0.0
 11
40.7899
 21
168.881
 31
0.0
  0
LINE
  8
0
 62
     250
 10
40.7899
 20
168.881
 30
0.0
 11
43.338
 21
167.499
 31
0.0
  0
LINE
  8
0
 62
     250
 10
43.338
 20
167.499
 30
0.0
 11
45.5581
 21
165.666
 31
0.0
  0
LINE
  8
0
 62
     250
 10
45.5581
 20
165.666
 30
0.0
 11
47.3893
 21
163.448
 31
0.0
  0
LINE
  8
0
 62
     250
 10
47.3893
 20
163.448
 30
0.0
 11
48.7715
 21
160.9
 31
0.0
  0
LINE
  8
0
 62
     250
 10
48.7715
 20
160.9
 30
0.0
 11
49.6454
 21
158.083
 31
0.0
  0
LINE
  8
0
 62
     250
 10
49.6454
 20
158.083
 30
0.0
 11
49.9512
 21
155.816
 31
0.0
  0
LINE
  8
0
 62
     250
 10
49.9512
 20
155.816
 30
0.0
 11
49.9512
 21
155.06
 31
0.0
  0
LINE
  8
0
 62
     250
 10
109.922
 20
155.094
 30
0.0
 11
109.922
 21
154.339
 31
0.0
  0
LINE
  8
0
 62
     250
 10
109.922
 20
154.339
 30
0.0
 11
109.616
 21
152.072
 31
0.0
  0
LINE
  8
0
 62
     250
 10
109.616
 20
152.072
 30
0.0
 11
108.742
 21
149.257
 31
0.0
  0
LINE
  8
0
 62
     250
 10
108.742
 20
149.257
 30
0.0
 11
107.359
 21
146.709
 31
0.0
  0
LINE
  8
0
 62
     250
 10
107.359
 20
146.709
 30
0.0
 11
105.527
 21
144.489
 31
0.0
  0
LINE
  8
0
 62
     250
 10
105.527
 20
144.489
 30
0.0
 11
103.307
 21
142.657
 31
0.0
  0
LINE
  8
0
 62
     250
 10
103.307
 20
142.657
 30
0.0
 11
100.759
 21
141.274
 31
0.0
  0
LINE
  8
0
 62
     250
 10
100.759
 20
141.274
 30
0.0
 11
97.9442
 21
140.4
 31
0.0
  0
LINE
  8
0
 62
     250
 10
97.9442
 20
140.4
 30
0.0
 11
95.6772
 21
140.094
 31
0.0
  0
LINE
  8
0
 62
     250
 10
95.6772
 20
140.094
 30
0.0
 11
94.9219
 21
140.094
 31
0.0
  0
LINE
  8
0
 62
     250
 10
94.9219
 20
140.094
 30
0.0
 11
94.1656
 21
140.094
 31
0.0
  0
LINE
  8
0
 62
     250
 10
94.1656
 20
140.094
 30
0.0
 11
91.8986
 21
140.4
 31
0.0
  0
LINE
  8
0
 62
     250
 10
91.8986
 20
140.4
 30
0.0
 11
89.082
 21
141.274
 31
0.0
  0
LINE
  8
0
 62
     250
 10
89.082
 20
141.274
 30
0.0
 11
86.5339
 21
142.657
 31
0.0
  0
LINE
  8
0
 62
     250
 10
86.5339
 20
142.657
 30
0.0
 11
84.3153
 21
144.489
 31
0.0
  0
LINE
  8
0
 62
     250
 10
84.3153
 20
144.489
 30
0.0
 11
82.4826
 21
146.709
 31
0.0
  0
LINE
  8
0
 62
     250
 10
82.4826
 20
146.709
 30
0.0
 11
81.1004
 21
149.257
 31
0.0
  0
LINE
  8
0
 62
     250
 10
81.1004
 20
149.257
 30
0.0
 11
80.2266
 21
152.072
 31
0.0
  0
LINE
  8
0
 62
     250
 10
80.2266
 20
152.072
 30
0.0
 11
79.9222
 21
154.339
 31
0.0
  0
LINE
  8
0
 62
     250
 10
79.9222
 20
154.339
 30
0.0
 11
79.9222
 21
155.094
 31
0.0
  0
LINE
  8
0
 62
     250
 10
79.9222
 20
155.094
 30
0.0
 11
79.9222
 21
155.851
 31
0.0
  0
LINE
  8
0
 62
     250
 10
79.9222
 20
155.851
 30
0.0
 11
80.2266
 21
158.117
 31
0.0
  0
LINE
  8
0
 62
     250
 10
80.2266
 20
158.117
 30
0.0
 11
81.1004
 21
160.934
 31
0.0
  0
LINE
  8
0
 62
     250
 10
81.1004
 20
160.934
 30
0.0
 11
82.4826
 21
163.482
 31
0.0
  0
LINE
  8
0
 62
     250
 10
82.4826
 20
163.482
 30
0.0
 11
84.3153
 21
165.701
 31
0.0
  0
LINE
  8
0
 62
     250
 10
84.3153
 20
165.701
 30
0.0
 11
86.5339
 21
167.533
 31
0.0
  0
LINE
  8
0
 62
     250
 10
86.5339
 20
167.533
 30
0.0
 11
89.082
 21
168.916
 31
0.0
  0
LINE
  8
0
 62
     250
 10
89.082
 20
168.916
 30
0.0
 11
91.8986
 21
169.789
 31
0.0
  0
LINE
  8
0
 62
     250
 10
91.8986
 20
169.789
 30
0.0
 11
94.1656
 21
170.094
 31
0.0
  0
LINE
  8
0
 62
     250
 10
94.1656
 20
170.094
 30
0.0
 11
94.9219
 21
170.094
 31
0.0
  0
LINE
  8
0
 62
     250
 10
94.9219
 20
170.094
 30
0.0
 11
95.6772
 21
170.094
 31
0.0
  0
LINE
  8
0
 62
     250
 10
95.6772
 20
170.094
 30
0.0
 11
97.9442
 21
169.789
 31
0.0
  0
LINE
  8
0
 62
     250
 10
97.9442
 20
169.789
 30
0.0
 11
100.759
 21
168.916
 31
0.0
  0
LINE
  8
0
 62
     250
 10
100.759
 20
168.916
 30
0.0
 11
103.307
 21
167.533
 31
0.0
  0
LINE
  8
0
 62
     250
 10
103.307
 20
167.533
 30
0.0
 11
105.527
 21
165.701
 31
0.0
  0
LINE
  8
0
 62
     250
 10
105.527
 20
165.701
 30
0.0
 11
107.359
 21
163.482
 31
0.0
  0
LINE
  8
0
 62
     250
 10
107.359
 20
163.482
 30
0.0
 11
108.742
 21
160.934
 31
0.0
  0
LINE
  8
0
 62
     250
 10
108.742
 20
160.934
 30
0.0
 11
109.616
 21
158.117
 31
0.0
  0
LINE
  8
0
 62
     250
 10
109.616
 20
158.117
 30
0.0
 11
109.922
 21
155.851
 31
0.0
  0
LINE
  8
0
 62
     250
 10
109.922
 20
155.851
 30
0.0
 11
109.922
 21
155.094
 31
0.0
  0
LINE
  8
0
 62
     250
 10
169.923
 20
155.148
 30
0.0
 11
169.923
 21
154.392
 31
0.0
  0
LINE
  8
0
 62
     250
 10
169.923
 20
154.392
 30
0.0
 11
169.617
 21
152.126
 31
0.0
  0
LINE
  8
0
 62
     250
 10
169.617
 20
152.126
 30
0.0
 11
168.743
 21
149.31
 31
0.0
  0
LINE
  8
0
 62
     250
 10
168.743
 20
149.31
 30
0.0
 11
167.361
 21
146.763
 31
0.0
  0
LINE
  8
0
 62
     250
 10
167.361
 20
146.763
 30
0.0
 11
165.53
 21
144.543
 31
0.0
  0
LINE
  8
0
 62
     250
 10
165.53
 20
144.543
 30
0.0
 11
163.31
 21
142.711
 31
0.0
  0
LINE
  8
0
 62
     250
 10
163.31
 20
142.711
 30
0.0
 11
160.762
 21
141.327
 31
0.0
  0
LINE
  8
0
 62
     250
 10
160.762
 20
141.327
 30
0.0
 11
157.945
 21
140.454
 31
0.0
  0
LINE
  8
0
 62
     250
 10
157.945
 20
140.454
 30
0.0
 11
155.678
 21
140.148
 31
0.0
  0
LINE
  8
0
 62
     250
 10
155.678
 20
140.148
 30
0.0
 11
154.923
 21
140.148
 31
0.0
  0
LINE
  8
0
 62
     250
 10
154.923
 20
140.148
 30
0.0
 11
154.167
 21
140.148
 31
0.0
  0
LINE
  8
0
 62
     250
 10
154.167
 20
140.148
 30
0.0
 11
151.9
 21
140.454
 31
0.0
  0
LINE
  8
0
 62
     250
 10
151.9
 20
140.454
 30
0.0
 11
149.083
 21
141.327
 31
0.0
  0
LINE
  8
0
 62
     250
 10
149.083
 20
141.327
 30
0.0
 11
146.535
 21
142.711
 31
0.0
  0
LINE
  8
0
 62
     250
 10
146.535
 20
142.711
 30
0.0
 11
144.316
 21
144.543
 31
0.0
  0
LINE
  8
0
 62
     250
 10
144.316
 20
144.543
 30
0.0
 11
142.484
 21
146.763
 31
0.0
  0
LINE
  8
0
 62
     250
 10
142.484
 20
146.763
 30
0.0
 11
141.102
 21
149.31
 31
0.0
  0
LINE
  8
0
 62
     250
 10
141.102
 20
149.31
 30
0.0
 11
140.228
 21
152.126
 31
0.0
  0
LINE
  8
0
 62
     250
 10
140.228
 20
152.126
 30
0.0
 11
139.923
 21
154.392
 31
0.0
  0
LINE
  8
0
 62
     250
 10
139.923
 20
154.392
 30
0.0
 11
139.923
 21
155.148
 31
0.0
  0
LINE
  8
0
 62
     250
 10
139.923
 20
155.148
 30
0.0
 11
139.923
 21
155.904
 31
0.0
  0
LINE
  8
0
 62
     250
 10
139.923
 20
155.904
 30
0.0
 11
140.228
 21
158.171
 31
0.0
  0
LINE
  8
0
 62
     250
 10
140.228
 20
158.171
 30
0.0
 11
141.102
 21
160.988
 31
0.0
  0
LINE
  8
0
 62
     250
 10
141.102
 20
160.988
 30
0.0
 11
142.484
 21
163.536
 31
0.0
  0
LINE
  8
0
 62
     250
 10
142.484
 20
163.536
 30
0.0
 11
144.316
 21
165.754
 31
0.0
  0
LINE
  8
0
 62
     250
 10
144.316
 20
165.754
 30
0.0
 11
146.535
 21
167.587
 31
0.0
  0
LINE
  8
0
 62
     250
 10
146.535
 20
167.587
 30
0.0
 11
149.083
 21
168.97
 31
0.0
  0
LINE
  8
0
 62
     250
 10
149.083
 20
168.97
 30
0.0
 11
151.9
 21
169.843
 31
0.0
  0
LINE
  8
0
 62
     250
 10
151.9
 20
169.843
 30
0.0
 11
154.167
 21
170.148
 31
0.0
  0
LINE
  8
0
 62
     250
 10
154.167
 20
170.148
 30
0.0
 11
154.923
 21
170.148
 31
0.0
  0
LINE
  8
0
 62
     250
 10
154.923
 20
170.148
 30
0.0
 11
155.678
 21
170.148
 31
0.0
  0
LINE
  8
0
 62
     250
 10
155.678
 20
170.148
 30
0.0
 11
157.945
 21
169.843
 31
0.0
  0
LINE
  8
0
 62
     250
 10
157.945
 20
169.843
 30
0.0
 11
160.762
 21
168.97
 31
0.0
  0
LINE
  8
0
 62
     250
 10
160.762
 20
168.97
 30
0.0
 11
163.31
 21
167.587
 31
0.0
  0
LINE
  8
0
 62
     250
 10
163.31
 20
167.587
 30
0.0
 11
165.53
 21
165.754
 31
0.0
  0
LINE
  8
0
 62
     250
 10
165.53
 20
165.754
 30
0.0
 11
167.361
 21
163.536
 31
0.0
  0
LINE
  8
0
 62
     250
 10
167.361
 20
163.536
 30
0.0
 11
168.743
 21
160.988
 31
0.0
  0
LINE
  8
0
 62
     250
 10
168.743
 20
160.988
 30
0.0
 11
169.617
 21
158.171
 31
0.0
  0
LINE
  8
0
 62
     250
 10
169.617
 20
158.171
 30
0.0
 11
169.923
 21
155.904
 31
0.0
  0
LINE
  8
0
 62
     250
 10
169.923
 20
155.904
 30
0.0
 11
169.923
 21
155.148
 31
0.0
  0
LINE
  8
0
 62
     250
 10
75.0976
 20
95.1011
 30
0.0
 11
75.0976
 21
94.3462
 31
0.0
  0
LINE
  8
0
 62
     250
 10
75.0976
 20
94.3462
 30
0.0
 11
74.7917
 21
92.0792
 31
0.0
  0
LINE
  8
0
 62
     250
 10
74.7917
 20
92.0792
 30
0.0
 11
73.9179
 21
89.2623
 31
0.0
  0
LINE
  8
0
 62
     250
 10
73.9179
 20
89.2623
 30
0.0
 11
72.5357
 21
86.7145
 31
0.0
  0
LINE
  8
0
 62
     250
 10
72.5357
 20
86.7145
 30
0.0
 11
70.7044
 21
84.4945
 31
0.0
  0
LINE
  8
0
 62
     250
 10
70.7044
 20
84.4945
 30
0.0
 11
68.4844
 21
82.6629
 31
0.0
  0
LINE
  8
0
 62
     250
 10
68.4844
 20
82.6629
 30
0.0
 11
65.9363
 21
81.2793
 31
0.0
  0
LINE
  8
0
 62
     250
 10
65.9363
 20
81.2793
 30
0.0
 11
63.1197
 21
80.4058
 31
0.0
  0
LINE
  8
0
 62
     250
 10
63.1197
 20
80.4058
 30
0.0
 11
60.8528
 21
80.1
 31
0.0
  0
LINE
  8
0
 62
     250
 10
60.8528
 20
80.1
 30
0.0
 11
60.0975
 21
80.1
 31
0.0
  0
LINE
  8
0
 62
     250
 10
60.0975
 20
80.1
 30
0.0
 11
59.3411
 21
80.1
 31
0.0
  0
LINE
  8
0
 62
     250
 10
59.3411
 20
80.1
 30
0.0
 11
57.0742
 21
80.4058
 31
0.0
  0
LINE
  8
0
 62
     250
 10
57.0742
 20
80.4058
 30
0.0
 11
54.259
 21
81.2793
 31
0.0
  0
LINE
  8
0
 62
     250
 10
54.259
 20
81.2793
 30
0.0
 11
51.7109
 21
82.6629
 31
0.0
  0
LINE
  8
0
 62
     250
 10
51.7109
 20
82.6629
 30
0.0
 11
49.4908
 21
84.4945
 31
0.0
  0
LINE
  8
0
 62
     250
 10
49.4908
 20
84.4945
 30
0.0
 11
47.6596
 21
86.7145
 31
0.0
  0
LINE
  8
0
 62
     250
 10
47.6596
 20
86.7145
 30
0.0
 11
46.276
 21
89.2623
 31
0.0
  0
LINE
  8
0
 62
     250
 10
46.276
 20
89.2623
 30
0.0
 11
45.4021
 21
92.0792
 31
0.0
  0
LINE
  8
0
 62
     250
 10
45.4021
 20
92.0792
 30
0.0
 11
45.0977
 21
94.3462
 31
0.0
  0
LINE
  8
0
 62
     250
 10
45.0977
 20
94.3462
 30
0.0
 11
45.0977
 21
95.1011
 31
0.0
  0
LINE
  8
0
 62
     250
 10
45.0977
 20
95.1011
 30
0.0
 11
45.0977
 21
95.8578
 31
0.0
  0
LINE
  8
0
 62
     250
 10
45.0977
 20
95.8578
 30
0.0
 11
45.4021
 21
98.1244
 31
0.0
  0
LINE
  8
0
 62
     250
 10
45.4021
 20
98.1244
 30
0.0
 11
46.276
 21
100.94
 31
0.0
  0
LINE
  8
0
 62
     250
 10
46.276
 20
100.94
 30
0.0
 11
47.6596
 21
103.488
 31
0.0
  0
LINE
  8
0
 62
     250
 10
47.6596
 20
103.488
 30
0.0
 11
49.4908
 21
105.708
 31
0.0
  0
LINE
  8
0
 62
     250
 10
49.4908
 20
105.708
 30
0.0
 11
51.7109
 21
107.539
 31
0.0
  0
LINE
  8
0
 62
     250
 10
51.7109
 20
107.539
 30
0.0
 11
54.259
 21
108.923
 31
0.0
  0
LINE
  8
0
 62
     250
 10
54.259
 20
108.923
 30
0.0
 11
57.0742
 21
109.796
 31
0.0
  0
LINE
  8
0
 62
     250
 10
57.0742
 20
109.796
 30
0.0
 11
59.3411
 21
110.101
 31
0.0
  0
LINE
  8
0
 62
     250
 10
59.3411
 20
110.101
 30
0.0
 11
60.0975
 21
110.101
 31
0.0
  0
LINE
  8
0
 62
     250
 10
60.0975
 20
110.101
 30
0.0
 11
60.8528
 21
110.101
 31
0.0
  0
LINE
  8
0
 62
     250
 10
60.8528
 20
110.101
 30
0.0
 11
63.1197
 21
109.796
 31
0.0
  0
LINE
  8
0
 62
     250
 10
63.1197
 20
109.796
 30
0.0
 11
65.9363
 21
108.923
 31
0.0
  0
LINE
  8
0
 62
     250
 10
65.9363
 20
108.923
 30
0.0
 11
68.4844
 21
107.539
 31
0.0
  0
LINE
  8
0
 62
     250
 10
68.4844
 20
107.539
 30
0.0
 11
70.7044
 21
105.708
 31
0.0
  0
LINE
  8
0
 62
     250
 10
70.7044
 20
105.708
 30
0.0
 11
72.5357
 21
103.488
 31
0.0
  0
LINE
  8
0
 62
     250
 10
72.5357
 20
103.488
 30
0.0
 11
73.9179
 21
100.94
 31
0.0
  0
LINE
  8
0
 62
     250
 10
73.9179
 20
100.94
 30
0.0
 11
74.7917
 21
98.1244
 31
0.0
  0
LINE
  8
0
 62
     250
 10
74.7917
 20
98.1244
 30
0.0
 11
75.0976
 21
95.8578
 31
0.0
  0
LINE
  8
0
 62
     250
 10
75.0976
 20
95.8578
 30
0.0
 11
75.0976
 21
95.1011
 31
0.0
  0
LINE
  8
0
 62
     250
 10
145.072
 20
92.2457
 30
0.0
 11
145.072
 21
91.4908
 31
0.0
  0
LINE
  8
0
 62
     250
 10
145.072
 20
91.4908
 30
0.0
 11
144.766
 21
89.2239
 31
0.0
  0
LINE
  8
0
 62
     250
 10
144.766
 20
89.2239
 30
0.0
 11
143.892
 21
86.4073
 31
0.0
  0
LINE
  8
0
 62
     250
 10
143.892
 20
86.4073
 30
0.0
 11
142.508
 21
83.8592
 31
0.0
  0
LINE
  8
0
 62
     250
 10
142.508
 20
83.8592
 30
0.0
 11
140.677
 21
81.6391
 31
0.0
  0
LINE
  8
0
 62
     250
 10
140.677
 20
81.6391
 30
0.0
 11
138.457
 21
79.8079
 31
0.0
  0
LINE
  8
0
 62
     250
 10
138.457
 20
79.8079
 30
0.0
 11
135.909
 21
78.4243
 31
0.0
  0
LINE
  8
0
 62
     250
 10
135.909
 20
78.4243
 30
0.0
 11
133.094
 21
77.5504
 31
0.0
  0
LINE
  8
0
 62
     250
 10
133.094
 20
77.5504
 30
0.0
 11
130.827
 21
77.2446
 31
0.0
  0
LINE
  8
0
 62
     250
 10
130.827
 20
77.2446
 30
0.0
 11
130.072
 21
77.2446
 31
0.0
  0
LINE
  8
0
 62
     250
 10
130.072
 20
77.2446
 30
0.0
 11
129.315
 21
77.2446
 31
0.0
  0
LINE
  8
0
 62
     250
 10
129.315
 20
77.2446
 30
0.0
 11
127.048
 21
77.5504
 31
0.0
  0
LINE
  8
0
 62
     250
 10
127.048
 20
77.5504
 30
0.0
 11
124.231
 21
78.4243
 31
0.0
  0
LINE
  8
0
 62
     250
 10
124.231
 20
78.4243
 30
0.0
 11
121.684
 21
79.8079
 31
0.0
  0
LINE
  8
0
 62
     250
 10
121.684
 20
79.8079
 30
0.0
 11
119.465
 21
81.6391
 31
0.0
  0
LINE
  8
0
 62
     250
 10
119.465
 20
81.6391
 30
0.0
 11
117.632
 21
83.8592
 31
0.0
  0
LINE
  8
0
 62
     250
 10
117.632
 20
83.8592
 30
0.0
 11
116.25
 21
86.4073
 31
0.0
  0
LINE
  8
0
 62
     250
 10
116.25
 20
86.4073
 30
0.0
 11
115.376
 21
89.2239
 31
0.0
  0
LINE
  8
0
 62
     250
 10
115.376
 20
89.2239
 30
0.0
 11
115.072
 21
91.4908
 31
0.0
  0
LINE
  8
0
 62
     250
 10
115.072
 20
91.4908
 30
0.0
 11
115.072
 21
92.2457
 31
0.0
  0
LINE
  8
0
 62
     250
 10
115.072
 20
92.2457
 30
0.0
 11
115.072
 21
93.0025
 31
0.0
  0
LINE
  8
0
 62
     250
 10
115.072
 20
93.0025
 30
0.0
 11
115.376
 21
95.2694
 31
0.0
  0
LINE
  8
0
 62
     250
 10
115.376
 20
95.2694
 30
0.0
 11
116.25
 21
98.0846
 31
0.0
  0
LINE
  8
0
 62
     250
 10
116.25
 20
98.0846
 30
0.0
 11
117.632
 21
100.633
 31
0.0
  0
LINE
  8
0
 62
     250
 10
117.632
 20
100.633
 30
0.0
 11
119.465
 21
102.853
 31
0.0
  0
LINE
  8
0
 62
     250
 10
119.465
 20
102.853
 30
0.0
 11
121.684
 21
104.684
 31
0.0
  0
LINE
  8
0
 62
     250
 10
121.684
 20
104.684
 30
0.0
 11
124.231
 21
106.068
 31
0.0
  0
LINE
  8
0
 62
     250
 10
124.231
 20
106.068
 30
0.0
 11
127.048
 21
106.941
 31
0.0
  0
LINE
  8
0
 62
     250
 10
127.048
 20
106.941
 30
0.0
 11
129.315
 21
107.246
 31
0.0
  0
LINE
  8
0
 62
     250
 10
129.315
 20
107.246
 30
0.0
 11
130.072
 21
107.246
 31
0.0
  0
LINE
  8
0
 62
     250
 10
130.072
 20
107.246
 30
0.0
 11
130.827
 21
107.246
 31
0.0
  0
LINE
  8
0
 62
     250
 10
130.827
 20
107.246
 30
0.0
 11
133.094
 21
106.941
 31
0.0
  0
LINE
  8
0
 62
     250
 10
133.094
 20
106.941
 30
0.0
 11
135.909
 21
106.068
 31
0.0
  0
LINE
  8
0
 62
     250
 10
135.909
 20
106.068
 30
0.0
 11
138.457
 21
104.684
 31
0.0
  0
LINE
  8
0
 62
     250
 10
138.457
 20
104.684
 30
0.0
 11
140.677
 21
102.853
 31
0.0
  0
LINE
  8
0
 62
     250
 10
140.677
 20
102.853
 30
0.0
 11
142.508
 21
100.633
 31
0.0
  0
LINE
  8
0
 62
     250
 10
142.508
 20
100.633
 30
0.0
 11
143.892
 21
98.0846
 31
0.0
  0
LINE
  8
0
 62
     250
 10
143.892
 20
98.0846
 30
0.0
 11
144.766
 21
95.2694
 31
0.0
  0
LINE
  8
0
 62
     250
 10
144.766
 20
95.2694
 30
0.0
 11
145.072
 21
93.0025
 31
0.0
  0
LINE
  8
0
 62
     250
 10
145.072
 20
93.0025
 30
0.0
 11
145.072
 21
92.2457
 31
0.0
  0
LINE
  8
0
 62
     250
 10
49.9607
 20
35.0655
 30
0.0
 11
49.9607
 21
34.3104
 31
0.0
  0
LINE
  8
0
 62
     250
 10
49.9607
 20
34.3104
 30
0.0
 11
49.6549
 21
32.0435
 31
0.0
  0
LINE
  8
0
 62
     250
 10
49.6549
 20
32.0435
 30
0.0
 11
48.7811
 21
29.2268
 31
0.0
  0
LINE
  8
0
 62
     250
 10
48.7811
 20
29.2268
 30
0.0
 11
47.3989
 21
26.6788
 31
0.0
  0
LINE
  8
0
 62
     250
 10
47.3989
 20
26.6788
 30
0.0
 11
45.5676
 21
24.4588
 31
0.0
  0
LINE
  8
0
 62
     250
 10
45.5676
 20
24.4588
 30
0.0
 11
43.3476
 21
22.6274
 31
0.0
  0
LINE
  8
0
 62
     250
 10
43.3476
 20
22.6274
 30
0.0
 11
40.7995
 21
21.2452
 31
0.0
  0
LINE
  8
0
 62
     250
 10
40.7995
 20
21.2452
 30
0.0
 11
37.9829
 21
20.3715
 31
0.0
  0
LINE
  8
0
 62
     250
 10
37.9829
 20
20.3715
 30
0.0
 11
35.7159
 21
20.0656
 31
0.0
  0
LINE
  8
0
 62
     250
 10
35.7159
 20
20.0656
 30
0.0
 11
34.9608
 21
20.0656
 31
0.0
  0
LINE
  8
0
 62
     250
 10
34.9608
 20
20.0656
 30
0.0
 11
34.2043
 21
20.0656
 31
0.0
  0
LINE
  8
0
 62
     250
 10
34.2043
 20
20.0656
 30
0.0
 11
31.9374
 21
20.3715
 31
0.0
  0
LINE
  8
0
 62
     250
 10
31.9374
 20
20.3715
 30
0.0
 11
29.1221
 21
21.2452
 31
0.0
  0
LINE
  8
0
 62
     250
 10
29.1221
 20
21.2452
 30
0.0
 11
26.5741
 21
22.6274
 31
0.0
  0
LINE
  8
0
 62
     250
 10
26.5741
 20
22.6274
 30
0.0
 11
24.3541
 21
24.4588
 31
0.0
  0
LINE
  8
0
 62
     250
 10
24.3541
 20
24.4588
 30
0.0
 11
22.5227
 21
26.6788
 31
0.0
  0
LINE
  8
0
 62
     250
 10
22.5227
 20
26.6788
 30
0.0
 11
21.1391
 21
29.2268
 31
0.0
  0
LINE
  8
0
 62
     250
 10
21.1391
 20
29.2268
 30
0.0
 11
20.2654
 21
32.0435
 31
0.0
  0
LINE
  8
0
 62
     250
 10
20.2654
 20
32.0435
 30
0.0
 11
19.9609
 21
34.3104
 31
0.0
  0
LINE
  8
0
 62
     250
 10
19.9609
 20
34.3104
 30
0.0
 11
19.9609
 21
35.0655
 31
0.0
  0
LINE
  8
0
 62
     250
 10
19.9609
 20
35.0655
 30
0.0
 11
19.9609
 21
35.8221
 31
0.0
  0
LINE
  8
0
 62
     250
 10
19.9609
 20
35.8221
 30
0.0
 11
20.2654
 21
38.0891
 31
0.0
  0
LINE
  8
0
 62
     250
 10
20.2654
 20
38.0891
 30
0.0
 11
21.1391
 21
40.9042
 31
0.0
  0
LINE
  8
0
 62
     250
 10
21.1391
 20
40.9042
 30
0.0
 11
22.5227
 21
43.4523
 31
0.0
  0
LINE
  8
0
 62
     250
 10
22.5227
 20
43.4523
 30
0.0
 11
24.3541
 21
45.6724
 31
0.0
  0
LINE
  8
0
 62
     250
 10
24.3541
 20
45.6724
 30
0.0
 11
26.5741
 21
47.5036
 31
0.0
  0
LINE
  8
0
 62
     250
 10
26.5741
 20
47.5036
 30
0.0
 11
29.1221
 21
48.8872
 31
0.0
  0
LINE
  8
0
 62
     250
 10
29.1221
 20
48.8872
 30
0.0
 11
31.9374
 21
49.7611
 31
0.0
  0
LINE
  8
0
 62
     250
 10
31.9374
 20
49.7611
 30
0.0
 11
34.2043
 21
50.0655
 31
0.0
  0
LINE
  8
0
 62
     250
 10
34.2043
 20
50.0655
 30
0.0
 11
34.9608
 21
50.0655
 31
0.0
  0
LINE
  8
0
 62
     250
 10
34.9608
 20
50.0655
 30
0.0
 11
35.7159
 21
50.0655
 31
0.0
  0
LINE
  8
0
 62
     250
 10
35.7159
 20
50.0655
 30
0.0
 11
37.9829
 21
49.7611
 31
0.0
  0
LINE
  8
0
 62
     250
 10
37.9829
 20
49.7611
 30
0.0
 11
40.7995
 21
48.8872
 31
0.0
  0
LINE
  8
0
 62
     250
 10
40.7995
 20
48.8872
 30
0.0
 11
43.3476
 21
47.5036
 31
0.0
  0
LINE
  8
0
 62
     250
 10
43.3476
 20
47.5036
 30
0.0
 11
45.5676
 21
45.6724
 31
0.0
  0
LINE
  8
0
 62
     250
 10
45.5676
 20
45.6724
 30
0.0
 11
47.3989
 21
43.4523
 31
0.0
  0
LINE
  8
0
 62
     250
 10
47.3989
 20
43.4523
 30
0.0
 11
48.7811
 21
40.9042
 31
0.0
  0
LINE
  8
0
 62
     250
 10
48.7811
 20
40.9042
 30
0.0
 11
49.6549
 21
38.0891
 31
0.0
  0
LINE
  8
0
 62
     250
 10
49.6549
 20
38.0891
 30
0.0
 11
49.9607
 21
35.8221
 31
0.0
  0
LINE
  8
0
 62
     250
 10
49.9607
 20
35.8221
 30
0.0
 11
49.9607
 21
35.0655
 31
0.0
  0
LINE
  8
0
 62
     250
 10
109.981
 20
35.1069
 30
0.0
 11
109.981
 21
34.3517
 31
0.0
  0
LINE
  8
0
 62
     250
 10
109.981
 20
34.3517
 30
0.0
 11
109.675
 21
32.0849
 31
0.0
  0
LINE
  8
0
 62
     250
 10
109.675
 20
32.0849
 30
0.0
 11
108.802
 21
29.2681
 31
0.0
  0
LINE
  8
0
 62
     250
 10
108.802
 20
29.2681
 30
0.0
 11
107.419
 21
26.7202
 31
0.0
  0
LINE
  8
0
 62
     250
 10
107.419
 20
26.7202
 30
0.0
 11
105.588
 21
24.5001
 31
0.0
  0
LINE
  8
0
 62
     250
 10
105.588
 20
24.5001
 30
0.0
 11
103.368
 21
22.6687
 31
0.0
  0
LINE
  8
0
 62
     250
 10
103.368
 20
22.6687
 30
0.0
 11
100.82
 21
21.2865
 31
0.0
  0
LINE
  8
0
 62
     250
 10
100.82
 20
21.2865
 30
0.0
 11
98.0034
 21
20.4129
 31
0.0
  0
LINE
  8
0
 62
     250
 10
98.0034
 20
20.4129
 30
0.0
 11
95.7365
 21
20.107
 31
0.0
  0
LINE
  8
0
 62
     250
 10
95.7365
 20
20.107
 30
0.0
 11
94.9812
 21
20.107
 31
0.0
  0
LINE
  8
0
 62
     250
 10
94.9812
 20
20.107
 30
0.0
 11
94.2248
 21
20.107
 31
0.0
  0
LINE
  8
0
 62
     250
 10
94.2248
 20
20.107
 30
0.0
 11
91.9579
 21
20.4129
 31
0.0
  0
LINE
  8
0
 62
     250
 10
91.9579
 20
20.4129
 30
0.0
 11
89.1427
 21
21.2865
 31
0.0
  0
LINE
  8
0
 62
     250
 10
89.1427
 20
21.2865
 30
0.0
 11
86.5946
 21
22.6687
 31
0.0
  0
LINE
  8
0
 62
     250
 10
86.5946
 20
22.6687
 30
0.0
 11
84.3746
 21
24.5001
 31
0.0
  0
LINE
  8
0
 62
     250
 10
84.3746
 20
24.5001
 30
0.0
 11
82.5429
 21
26.7202
 31
0.0
  0
LINE
  8
0
 62
     250
 10
82.5429
 20
26.7202
 30
0.0
 11
81.1597
 21
29.2681
 31
0.0
  0
LINE
  8
0
 62
     250
 10
81.1597
 20
29.2681
 30
0.0
 11
80.2859
 21
32.0849
 31
0.0
  0
LINE
  8
0
 62
     250
 10
80.2859
 20
32.0849
 30
0.0
 11
79.9814
 21
34.3517
 31
0.0
  0
LINE
  8
0
 62
     250
 10
79.9814
 20
34.3517
 30
0.0
 11
79.9814
 21
35.1069
 31
0.0
  0
LINE
  8
0
 62
     250
 10
79.9814
 20
35.1069
 30
0.0
 11
79.9814
 21
35.8634
 31
0.0
  0
LINE
  8
0
 62
     250
 10
79.9814
 20
35.8634
 30
0.0
 11
80.2859
 21
38.1303
 31
0.0
  0
LINE
  8
0
 62
     250
 10
80.2859
 20
38.1303
 30
0.0
 11
81.1597
 21
40.9469
 31
0.0
  0
LINE
  8
0
 62
     250
 10
81.1597
 20
40.9469
 30
0.0
 11
82.5429
 21
43.495
 31
0.0
  0
LINE
  8
0
 62
     250
 10
82.5429
 20
43.495
 30
0.0
 11
84.3746
 21
45.7137
 31
0.0
  0
LINE
  8
0
 62
     250
 10
84.3746
 20
45.7137
 30
0.0
 11
86.5946
 21
47.5463
 31
0.0
  0
LINE
  8
0
 62
     250
 10
86.5946
 20
47.5463
 30
0.0
 11
89.1427
 21
48.9285
 31
0.0
  0
LINE
  8
0
 62
     250
 10
89.1427
 20
48.9285
 30
0.0
 11
91.9579
 21
49.8023
 31
0.0
  0
LINE
  8
0
 62
     250
 10
91.9579
 20
49.8023
 30
0.0
 11
94.2248
 21
50.1068
 31
0.0
  0
LINE
  8
0
 62
     250
 10
94.2248
 20
50.1068
 30
0.0
 11
94.9812
 21
50.1068
 31
0.0
  0
LINE
  8
0
 62
     250
 10
94.9812
 20
50.1068
 30
0.0
 11
95.7365
 21
50.1068
 31
0.0
  0
LINE
  8
0
 62
     250
 10
95.7365
 20
50.1068
 30
0.0
 11
98.0034
 21
49.8023
 31
0.0
  0
LINE
  8
0
 62
     250
 10
98.0034
 20
49.8023
 30
0.0
 11
100.82
 21
48.9285
 31
0.0
  0
LINE
  8
0
 62
     250
 10
100.82
 20
48.9285
 30
0.0
 11
103.368
 21
47.5463
 31
0.0
  0
LINE
  8
0
 62
     250
 10
103.368
 20
47.5463
 30
0.0
 11
105.588
 21
45.7137
 31
0.0
  0
LINE
  8
0
 62
     250
 10
105.588
 20
45.7137
 30
0.0
 11
107.419
 21
43.495
 31
0.0
  0
LINE
  8
0
 62
     250
 10
107.419
 20
43.495
 30
0.0
 11
108.802
 21
40.9469
 31
0.0
  0
LINE
  8
0
 62
     250
 10
108.802
 20
40.9469
 30
0.0
 11
109.675
 21
38.1303
 31
0.0
  0
LINE
  8
0
 62
     250
 10
109.675
 20
38.1303
 30
0.0
 11
109.981
 21
35.8634
 31
0.0
  0
LINE
  8
0
 62
     250
 10
109.981
 20
35.8634
 30
0.0
 11
109.981
 21
35.1069
 31
0.0
  0
LINE
  8
0
 62
     250
 10
170.029
 20
35.1069
 30
0.0
 11
170.029
 21
34.3517
 31
0.0
  0
LINE
  8
0
 62
     250
 10
170.029
 20
34.3517
 30
0.0
 11
169.723
 21
32.0849
 31
0.0
  0
LINE
  8
0
 62
     250
 10
169.723
 20
32.0849
 30
0.0
 11
168.85
 21
29.2681
 31
0.0
  0
LINE
  8
0
 62
     250
 10
168.85
 20
29.2681
 30
0.0
 11
167.467
 21
26.7202
 31
0.0
  0
LINE
  8
0
 62
     250
 10
167.467
 20
26.7202
 30
0.0
 11
165.636
 21
24.5001
 31
0.0
  0
LINE
  8
0
 62
     250
 10
165.636
 20
24.5001
 30
0.0
 11
163.416
 21
22.6687
 31
0.0
  0
LINE
  8
0
 62
     250
 10
163.416
 20
22.6687
 30
0.0
 11
160.868
 21
21.2865
 31
0.0
  0
LINE
  8
0
 62
     250
 10
160.868
 20
21.2865
 30
0.0
 11
158.051
 21
20.4129
 31
0.0
  0
LINE
  8
0
 62
     250
 10
158.051
 20
20.4129
 30
0.0
 11
155.785
 21
20.107
 31
0.0
  0
LINE
  8
0
 62
     250
 10
155.785
 20
20.107
 30
0.0
 11
155.029
 21
20.107
 31
0.0
  0
LINE
  8
0
 62
     250
 10
155.029
 20
20.107
 30
0.0
 11
154.273
 21
20.107
 31
0.0
  0
LINE
  8
0
 62
     250
 10
154.273
 20
20.107
 30
0.0
 11
152.006
 21
20.4129
 31
0.0
  0
LINE
  8
0
 62
     250
 10
152.006
 20
20.4129
 30
0.0
 11
149.19
 21
21.2865
 31
0.0
  0
LINE
  8
0
 62
     250
 10
149.19
 20
21.2865
 30
0.0
 11
146.643
 21
22.6687
 31
0.0
  0
LINE
  8
0
 62
     250
 10
146.643
 20
22.6687
 30
0.0
 11
144.423
 21
24.5001
 31
0.0
  0
LINE
  8
0
 62
     250
 10
144.423
 20
24.5001
 30
0.0
 11
142.591
 21
26.7202
 31
0.0
  0
LINE
  8
0
 62
     250
 10
142.591
 20
26.7202
 30
0.0
 11
141.207
 21
29.2681
 31
0.0
  0
LINE
  8
0
 62
     250
 10
141.207
 20
29.2681
 30
0.0
 11
140.334
 21
32.0849
 31
0.0
  0
LINE
  8
0
 62
     250
 10
140.334
 20
32.0849
 30
0.0
 11
140.029
 21
34.3517
 31
0.0
  0
LINE
  8
0
 62
     250
 10
140.029
 20
34.3517
 30
0.0
 11
140.029
 21
35.1069
 31
0.0
  0
LINE
  8
0
 62
     250
 10
140.029
 20
35.1069
 30
0.0
 11
140.029
 21
35.8634
 31
0.0
  0
LINE
  8
0
 62
     250
 10
140.029
 20
35.8634
 30
0.0
 11
140.334
 21
38.1303
 31
0.0
  0
LINE
  8
0
 62
     250
 10
140.334
 20
38.1303
 30
0.0
 11
141.207
 21
40.9455
 31
0.0
  0
LINE
  8
0
 62
     250
 10
141.207
 20
40.9455
 30
0.0
 11
142.591
 21
43.4936
 31
0.0
  0
LINE
  8
0
 62
     250
 10
142.591
 20
43.4936
 30
0.0
 11
144.423
 21
45.7137
 31
0.0
  0
LINE
  8
0
 62
     250
 10
144.423
 20
45.7137
 30
0.0
 11
146.643
 21
47.5449
 31
0.0
  0
LINE
  8
0
 62
     250
 10
146.643
 20
47.5449
 30
0.0
 11
149.19
 21
48.9285
 31
0.0
  0
LINE
  8
0
 62
     250
 10
149.19
 20
48.9285
 30
0.0
 11
152.006
 21
49.8023
 31
0.0
  0
LINE
  8
0
 62
     250
 10
152.006
 20
49.8023
 30
0.0
 11
154.273
 21
50.1068
 31
0.0
  0
LINE
  8
0
 62
     250
 10
154.273
 20
50.1068
 30
0.0
 11
155.029
 21
50.1068
 31
0.0
  0
LINE
  8
0
 62
     250
 10
155.029
 20
50.1068
 30
0.0
 11
155.785
 21
50.1068
 31
0.0
  0
LINE
  8
0
 62
     250
 10
155.785
 20
50.1068
 30
0.0
 11
158.051
 21
49.8023
 31
0.0
  0
LINE
  8
0
 62
     250
 10
158.051
 20
49.8023
 30
0.0
 11
160.868
 21
48.9285
 31
0.0
  0
LINE
  8
0
 62
     250
 10
160.868
 20
48.9285
 30
0.0
 11
163.416
 21
47.5449
 31
0.0
  0
LINE
  8
0
 62
     250
 10
163.416
 20
47.5449
 30
0.0
 11
165.636
 21
45.7137
 31
0.0
  0
LINE
  8
0
 62
     250
 10
165.636
 20
45.7137
 30
0.0
 11
167.467
 21
43.4936
 31
0.0
  0
LINE
  8
0
 62
     250
 10
167.467
 20
43.4936
 30
0.0
 11
168.85
 21
40.9455
 31
0.0
  0
LINE
  8
0
 62
     250
 10
168.85
 20
40.9455
 30
0.0
 11
169.723
 21
38.1303
 31
0.0
  0
LINE
  8
0
 62
     250
 10
169.723
 20
38.1303
 30
0.0
 11
170.029
 21
35.8634
 31
0.0
  0
LINE
  8
0
 62
     250
 10
170.029
 20
35.8634
 30
0.0
 11
170.029
 21
35.1069
 31
0.0
  0
ENDSEC
  0
EOF
