999
"DXF R12 Output" (www.mydxf.blogspot.com)
 0 
SECTION
 2 
HEADER
 9 
$ACADVER
 1 
AC1009
 9 
$EXTMIN
 10 
 0 
 20 
 0 
 9 
$EXTMAX
 10 
 8.5 
 20 
 11 
 0 
ENDSEC
 0 
SECTION
 2 
ENTITIES
0
LINE
8
Camada 1
10
52.940600
20
118.247000
11
52.940600
21
178.247000
0
LINE
8
Camada 1
10
52.940600
20
178.247000
11
236.940600
21
178.247000
0
LINE
8
Camada 1
10
236.940600
20
178.247000
11
236.940600
21
118.247000
0
LINE
8
Camada 1
10
236.940600
20
118.247000
11
52.940600
21
118.247000
0
LINE
8
Camada 1
10
175.942600
20
160.765700
11
174.074170
21
160.625715
0
LINE
8
Camada 1
10
174.074170
20
160.625715
11
172.277317
21
160.216853
0
LINE
8
Camada 1
10
172.277317
20
160.216853
11
170.576949
21
159.555758
0
LINE
8
Camada 1
10
170.576949
20
159.555758
11
168.997972
21
158.659070
0
LINE
8
Camada 1
10
168.997972
20
158.659070
11
167.565293
21
157.543433
0
LINE
8
Camada 1
10
167.565293
20
157.543433
11
166.303817
21
156.225488
0
LINE
8
Camada 1
10
166.303817
20
156.225488
11
165.238453
21
154.721877
0
LINE
8
Camada 1
10
165.238453
20
154.721877
11
164.394106
21
153.049243
0
LINE
8
Camada 1
10
164.394106
20
153.049243
11
163.808418
21
151.269468
0
LINE
8
Camada 1
10
163.808418
20
151.269468
11
163.498531
21
149.452929
0
LINE
8
Camada 1
10
163.498531
20
149.452929
11
163.458601
21
147.629003
0
LINE
8
Camada 1
10
163.458601
20
147.629003
11
163.682784
21
145.827071
0
LINE
8
Camada 1
10
163.682784
20
145.827071
11
164.165236
21
144.076512
0
LINE
8
Camada 1
10
164.165236
20
144.076512
11
164.900112
21
142.406705
0
LINE
8
Camada 1
10
164.900112
20
142.406705
11
165.881570
21
140.847029
0
LINE
8
Camada 1
10
165.881570
20
140.847029
11
167.103765
21
139.426865
0
LINE
8
Camada 1
10
167.103765
20
139.426865
11
168.523929
21
138.204670
0
LINE
8
Camada 1
10
168.523929
20
138.204670
11
170.083605
21
137.223212
0
LINE
8
Camada 1
10
170.083605
20
137.223212
11
171.753412
21
136.488336
0
LINE
8
Camada 1
10
171.753412
20
136.488336
11
173.503971
21
136.005884
0
LINE
8
Camada 1
10
173.503971
20
136.005884
11
175.305903
21
135.781701
0
LINE
8
Camada 1
10
175.305903
20
135.781701
11
177.129829
21
135.821631
0
LINE
8
Camada 1
10
177.129829
20
135.821631
11
178.946368
21
136.131518
0
LINE
8
Camada 1
10
178.946368
20
136.131518
11
180.726143
21
136.717206
0
LINE
8
Camada 1
10
180.726143
20
136.717206
11
182.398777
21
137.561553
0
LINE
8
Camada 1
10
182.398777
20
137.561553
11
183.902388
21
138.626917
0
LINE
8
Camada 1
10
183.902388
20
138.626917
11
185.220333
21
139.888393
0
LINE
8
Camada 1
10
185.220333
20
139.888393
11
186.335970
21
141.321072
0
LINE
8
Camada 1
10
186.335970
20
141.321072
11
187.232658
21
142.900049
0
LINE
8
Camada 1
10
187.232658
20
142.900049
11
187.893753
21
144.600417
0
LINE
8
Camada 1
10
187.893753
20
144.600417
11
188.302615
21
146.397270
0
LINE
8
Camada 1
10
188.302615
20
146.397270
11
188.442600
21
148.265700
0
LINE
8
Camada 1
10
188.442600
20
148.265700
11
188.200197
21
150.715717
0
LINE
8
Camada 1
10
188.200197
20
150.715717
11
187.491094
21
153.049243
0
LINE
8
Camada 1
10
187.491094
20
153.049243
11
186.342453
21
155.200706
0
LINE
8
Camada 1
10
186.342453
20
155.200706
11
184.781435
21
157.104535
0
LINE
8
Camada 1
10
184.781435
20
157.104535
11
182.877606
21
158.665553
0
LINE
8
Camada 1
10
182.877606
20
158.665553
11
180.726143
21
159.814194
0
LINE
8
Camada 1
10
180.726143
20
159.814194
11
178.392617
21
160.523297
0
LINE
8
Camada 1
10
178.392617
20
160.523297
11
175.942600
21
160.765700
0
LINE
8
Camada 1
10
175.942600
20
160.765700
11
175.942600
21
160.765700
0
LINE
8
Camada 1
10
113.920900
20
160.711100
11
112.052470
21
160.571115
0
LINE
8
Camada 1
10
112.052470
20
160.571115
11
110.255617
21
160.162253
0
LINE
8
Camada 1
10
110.255617
20
160.162253
11
108.555249
21
159.501158
0
LINE
8
Camada 1
10
108.555249
20
159.501158
11
106.976272
21
158.604470
0
LINE
8
Camada 1
10
106.976272
20
158.604470
11
105.543593
21
157.488833
0
LINE
8
Camada 1
10
105.543593
20
157.488833
11
104.282117
21
156.170888
0
LINE
8
Camada 1
10
104.282117
20
156.170888
11
103.216753
21
154.667277
0
LINE
8
Camada 1
10
103.216753
20
154.667277
11
102.372406
21
152.994643
0
LINE
8
Camada 1
10
102.372406
20
152.994643
11
101.786718
21
151.214868
0
LINE
8
Camada 1
10
101.786718
20
151.214868
11
101.476831
21
149.398329
0
LINE
8
Camada 1
10
101.476831
20
149.398329
11
101.436901
21
147.574403
0
LINE
8
Camada 1
10
101.436901
20
147.574403
11
101.661084
21
145.772471
0
LINE
8
Camada 1
10
101.661084
20
145.772471
11
102.143536
21
144.021912
0
LINE
8
Camada 1
10
102.143536
20
144.021912
11
102.878412
21
142.352105
0
LINE
8
Camada 1
10
102.878412
20
142.352105
11
103.859870
21
140.792429
0
LINE
8
Camada 1
10
103.859870
20
140.792429
11
105.082065
21
139.372265
0
LINE
8
Camada 1
10
105.082065
20
139.372265
11
106.502229
21
138.150070
0
LINE
8
Camada 1
10
106.502229
20
138.150070
11
108.061905
21
137.168612
0
LINE
8
Camada 1
10
108.061905
20
137.168612
11
109.731712
21
136.433736
0
LINE
8
Camada 1
10
109.731712
20
136.433736
11
111.482271
21
135.951284
0
LINE
8
Camada 1
10
111.482271
20
135.951284
11
113.284203
21
135.727101
0
LINE
8
Camada 1
10
113.284203
20
135.727101
11
115.108129
21
135.767031
0
LINE
8
Camada 1
10
115.108129
20
135.767031
11
116.924668
21
136.076918
0
LINE
8
Camada 1
10
116.924668
20
136.076918
11
118.704443
21
136.662606
0
LINE
8
Camada 1
10
118.704443
20
136.662606
11
120.377077
21
137.506953
0
LINE
8
Camada 1
10
120.377077
20
137.506953
11
121.880688
21
138.572317
0
LINE
8
Camada 1
10
121.880688
20
138.572317
11
123.198633
21
139.833793
0
LINE
8
Camada 1
10
123.198633
20
139.833793
11
124.314270
21
141.266472
0
LINE
8
Camada 1
10
124.314270
20
141.266472
11
125.210958
21
142.845449
0
LINE
8
Camada 1
10
125.210958
20
142.845449
11
125.872053
21
144.545817
0
LINE
8
Camada 1
10
125.872053
20
144.545817
11
126.280915
21
146.342670
0
LINE
8
Camada 1
10
126.280915
20
146.342670
11
126.420900
21
148.211100
0
LINE
8
Camada 1
10
126.420900
20
148.211100
11
126.178497
21
150.661117
0
LINE
8
Camada 1
10
126.178497
20
150.661117
11
125.469394
21
152.994643
0
LINE
8
Camada 1
10
125.469394
20
152.994643
11
124.320753
21
155.146106
0
LINE
8
Camada 1
10
124.320753
20
155.146106
11
122.759735
21
157.049935
0
LINE
8
Camada 1
10
122.759735
20
157.049935
11
120.855906
21
158.610953
0
LINE
8
Camada 1
10
120.855906
20
158.610953
11
118.704443
21
159.759594
0
LINE
8
Camada 1
10
118.704443
20
159.759594
11
116.370917
21
160.468697
0
LINE
8
Camada 1
10
116.370917
20
160.468697
11
113.920900
21
160.711100
0
LINE
8
Camada 1
10
113.920900
20
160.711100
11
113.920900
21
160.711100
0
LINE
8
Camada 1
10
52.317900
20
48.193000
11
52.317900
21
108.193000
0
LINE
8
Camada 1
10
52.317900
20
108.193000
11
236.317900
21
108.193000
0
LINE
8
Camada 1
10
236.317900
20
108.193000
11
236.317900
21
48.193000
0
LINE
8
Camada 1
10
236.317900
20
48.193000
11
52.317900
21
48.193000
0
LINE
8
Camada 1
10
175.319900
20
90.711200
11
173.451470
21
90.571215
0
LINE
8
Camada 1
10
173.451470
20
90.571215
11
171.654617
21
90.162353
0
LINE
8
Camada 1
10
171.654617
20
90.162353
11
169.954249
21
89.501258
0
LINE
8
Camada 1
10
169.954249
20
89.501258
11
168.375272
21
88.604570
0
LINE
8
Camada 1
10
168.375272
20
88.604570
11
166.942593
21
87.488933
0
LINE
8
Camada 1
10
166.942593
20
87.488933
11
165.681117
21
86.170988
0
LINE
8
Camada 1
10
165.681117
20
86.170988
11
164.615753
21
84.667377
0
LINE
8
Camada 1
10
164.615753
20
84.667377
11
163.771406
21
82.994743
0
LINE
8
Camada 1
10
163.771406
20
82.994743
11
163.185718
21
81.214968
0
LINE
8
Camada 1
10
163.185718
20
81.214968
11
162.875831
21
79.398429
0
LINE
8
Camada 1
10
162.875831
20
79.398429
11
162.835901
21
77.574503
0
LINE
8
Camada 1
10
162.835901
20
77.574503
11
163.060084
21
75.772571
0
LINE
8
Camada 1
10
163.060084
20
75.772571
11
163.542536
21
74.022012
0
LINE
8
Camada 1
10
163.542536
20
74.022012
11
164.277412
21
72.352205
0
LINE
8
Camada 1
10
164.277412
20
72.352205
11
165.258870
21
70.792529
0
LINE
8
Camada 1
10
165.258870
20
70.792529
11
166.481065
21
69.372365
0
LINE
8
Camada 1
10
166.481065
20
69.372365
11
167.901229
21
68.150170
0
LINE
8
Camada 1
10
167.901229
20
68.150170
11
169.460905
21
67.168712
0
LINE
8
Camada 1
10
169.460905
20
67.168712
11
171.130712
21
66.433836
0
LINE
8
Camada 1
10
171.130712
20
66.433836
11
172.881271
21
65.951384
0
LINE
8
Camada 1
10
172.881271
20
65.951384
11
174.683203
21
65.727201
0
LINE
8
Camada 1
10
174.683203
20
65.727201
11
176.507129
21
65.767131
0
LINE
8
Camada 1
10
176.507129
20
65.767131
11
178.323668
21
66.077018
0
LINE
8
Camada 1
10
178.323668
20
66.077018
11
180.103443
21
66.662706
0
LINE
8
Camada 1
10
180.103443
20
66.662706
11
181.776077
21
67.507053
0
LINE
8
Camada 1
10
181.776077
20
67.507053
11
183.279688
21
68.572417
0
LINE
8
Camada 1
10
183.279688
20
68.572417
11
184.597633
21
69.833893
0
LINE
8
Camada 1
10
184.597633
20
69.833893
11
185.713270
21
71.266572
0
LINE
8
Camada 1
10
185.713270
20
71.266572
11
186.609958
21
72.845549
0
LINE
8
Camada 1
10
186.609958
20
72.845549
11
187.271053
21
74.545917
0
LINE
8
Camada 1
10
187.271053
20
74.545917
11
187.679915
21
76.342770
0
LINE
8
Camada 1
10
187.679915
20
76.342770
11
187.819900
21
78.211200
0
LINE
8
Camada 1
10
187.819900
20
78.211200
11
187.577497
21
80.661217
0
LINE
8
Camada 1
10
187.577497
20
80.661217
11
186.868394
21
82.994743
0
LINE
8
Camada 1
10
186.868394
20
82.994743
11
185.719753
21
85.146206
0
LINE
8
Camada 1
10
185.719753
20
85.146206
11
184.158735
21
87.050035
0
LINE
8
Camada 1
10
184.158735
20
87.050035
11
182.254906
21
88.611053
0
LINE
8
Camada 1
10
182.254906
20
88.611053
11
180.103443
21
89.759694
0
LINE
8
Camada 1
10
180.103443
20
89.759694
11
177.769917
21
90.468797
0
LINE
8
Camada 1
10
177.769917
20
90.468797
11
175.319900
21
90.711200
0
LINE
8
Camada 1
10
175.319900
20
90.711200
11
175.319900
21
90.711200
0
LINE
8
Camada 1
10
113.298200
20
90.656600
11
111.429770
21
90.516615
0
LINE
8
Camada 1
10
111.429770
20
90.516615
11
109.632917
21
90.107753
0
LINE
8
Camada 1
10
109.632917
20
90.107753
11
107.932549
21
89.446658
0
LINE
8
Camada 1
10
107.932549
20
89.446658
11
106.353572
21
88.549970
0
LINE
8
Camada 1
10
106.353572
20
88.549970
11
104.920893
21
87.434333
0
LINE
8
Camada 1
10
104.920893
20
87.434333
11
103.659417
21
86.116388
0
LINE
8
Camada 1
10
103.659417
20
86.116388
11
102.594053
21
84.612777
0
LINE
8
Camada 1
10
102.594053
20
84.612777
11
101.749706
21
82.940143
0
LINE
8
Camada 1
10
101.749706
20
82.940143
11
101.164018
21
81.160368
0
LINE
8
Camada 1
10
101.164018
20
81.160368
11
100.854131
21
79.343829
0
LINE
8
Camada 1
10
100.854131
20
79.343829
11
100.814201
21
77.519903
0
LINE
8
Camada 1
10
100.814201
20
77.519903
11
101.038384
21
75.717971
0
LINE
8
Camada 1
10
101.038384
20
75.717971
11
101.520836
21
73.967412
0
LINE
8
Camada 1
10
101.520836
20
73.967412
11
102.255712
21
72.297605
0
LINE
8
Camada 1
10
102.255712
20
72.297605
11
103.237170
21
70.737929
0
LINE
8
Camada 1
10
103.237170
20
70.737929
11
104.459365
21
69.317765
0
LINE
8
Camada 1
10
104.459365
20
69.317765
11
105.879529
21
68.095570
0
LINE
8
Camada 1
10
105.879529
20
68.095570
11
107.439205
21
67.114112
0
LINE
8
Camada 1
10
107.439205
20
67.114112
11
109.109012
21
66.379236
0
LINE
8
Camada 1
10
109.109012
20
66.379236
11
110.859571
21
65.896784
0
LINE
8
Camada 1
10
110.859571
20
65.896784
11
112.661503
21
65.672601
0
LINE
8
Camada 1
10
112.661503
20
65.672601
11
114.485429
21
65.712531
0
LINE
8
Camada 1
10
114.485429
20
65.712531
11
116.301968
21
66.022418
0
LINE
8
Camada 1
10
116.301968
20
66.022418
11
118.081743
21
66.608106
0
LINE
8
Camada 1
10
118.081743
20
66.608106
11
119.754377
21
67.452453
0
LINE
8
Camada 1
10
119.754377
20
67.452453
11
121.257988
21
68.517817
0
LINE
8
Camada 1
10
121.257988
20
68.517817
11
122.575933
21
69.779293
0
LINE
8
Camada 1
10
122.575933
20
69.779293
11
123.691570
21
71.211972
0
LINE
8
Camada 1
10
123.691570
20
71.211972
11
124.588258
21
72.790949
0
LINE
8
Camada 1
10
124.588258
20
72.790949
11
125.249353
21
74.491317
0
LINE
8
Camada 1
10
125.249353
20
74.491317
11
125.658215
21
76.288170
0
LINE
8
Camada 1
10
125.658215
20
76.288170
11
125.798200
21
78.156600
0
LINE
8
Camada 1
10
125.798200
20
78.156600
11
125.555797
21
80.606617
0
LINE
8
Camada 1
10
125.555797
20
80.606617
11
124.846694
21
82.940143
0
LINE
8
Camada 1
10
124.846694
20
82.940143
11
123.698053
21
85.091606
0
LINE
8
Camada 1
10
123.698053
20
85.091606
11
122.137035
21
86.995435
0
LINE
8
Camada 1
10
122.137035
20
86.995435
11
120.233206
21
88.556453
0
LINE
8
Camada 1
10
120.233206
20
88.556453
11
118.081743
21
89.705094
0
LINE
8
Camada 1
10
118.081743
20
89.705094
11
115.748217
21
90.414197
0
LINE
8
Camada 1
10
115.748217
20
90.414197
11
113.298200
21
90.656600
0
LINE
8
Camada 1
10
113.298200
20
90.656600
11
113.298200
21
90.656600
 0 
ENDSEC
 0 
EOF